<svg width="30" height="30" viewBox="0 0 30 30" fill="none" xmlns="http://www.w3.org/2000/svg">
<g clip-path="url(#clip0_141_2)">
<path d="M30 15C30 6.71484 23.2852 0 15 0C6.71484 0 0 6.71484 0 15C0 23.2852 6.71484 30 15 30C23.2852 30 30 23.2852 30 15ZM15.8789 7.91016C16.4297 7.35938 17.3203 7.35938 17.8652 7.91016C18.4102 8.46094 18.416 9.35156 17.8652 9.89648L12.7676 14.9941L17.8652 20.0918C18.416 20.6426 18.416 21.5332 17.8652 22.0781C17.3145 22.623 16.4238 22.6289 15.8789 22.0781L9.78516 15.9961C9.23438 15.4453 9.23438 14.5547 9.78516 14.0098L15.8789 7.91016Z" fill="black"/>
</g>
<defs>
<clipPath id="clip0_141_2">
<rect width="30" height="30" fill="white"/>
</clipPath>
</defs>
</svg>
