<svg width="25" height="25" viewBox="0 0 25 25" fill="none" xmlns="http://www.w3.org/2000/svg">
<path d="M12.5 25C14.471 25 16.0697 23.6011 16.0697 21.875H8.93026C8.93026 23.6011 10.529 25 12.5 25ZM24.5195 17.6899C23.4414 16.6763 21.4241 15.1514 21.4241 10.1562C21.4241 6.3623 18.3839 3.3252 14.2846 2.58008V1.5625C14.2846 0.699707 13.4855 0 12.5 0C11.5145 0 10.7154 0.699707 10.7154 1.5625V2.58008C6.61609 3.3252 3.57592 6.3623 3.57592 10.1562C3.57592 15.1514 1.55863 16.6763 0.480506 17.6899C0.145685 18.0049 -0.00275159 18.3813 3.85818e-05 18.75C0.00617696 19.5508 0.724367 20.3125 1.79133 20.3125H23.2087C24.2756 20.3125 24.9944 19.5508 25 18.75C25.0028 18.3813 24.8543 18.0044 24.5195 17.6899Z" fill="black"/>
</svg>
