<svg width="25" height="25" viewBox="0 0 25 25" fill="none" xmlns="http://www.w3.org/2000/svg">
<g clip-path="url(#clip0_38_26)">
<path d="M16.4062 21.875H0.78125C0.351562 21.875 0 22.2266 0 22.6562V24.2188C0 24.6484 0.351562 25 0.78125 25H16.4062C16.8359 25 17.1875 24.6484 17.1875 24.2188V22.6562C17.1875 22.2266 16.8359 21.875 16.4062 21.875ZM24.082 5.23926L20.127 1.28418C19.8242 0.981445 19.3262 0.981445 19.0234 1.28418L18.4717 1.83594C18.1689 2.13867 18.1689 2.63672 18.4717 2.93945L20.3125 4.78027V7.8125C20.3125 9.18457 21.333 10.3174 22.6562 10.5078V18.3594C22.6562 19.0039 22.1289 19.5312 21.4844 19.5312C20.8398 19.5312 20.3125 19.0039 20.3125 18.3594V16.7969C20.3125 14.4238 18.3887 12.5 16.0156 12.5H15.625V3.125C15.625 1.40137 14.2236 0 12.5 0H4.6875C2.96387 0 1.5625 1.40137 1.5625 3.125V20.3125H15.625V14.8438H16.0156C17.0947 14.8438 17.9688 15.7178 17.9688 16.7969V18.1543C17.9688 19.9951 19.2871 21.6699 21.1182 21.8604C23.2178 22.0703 25 20.4199 25 18.3594V7.45117C25 6.62109 24.668 5.8252 24.082 5.23926ZM12.5 9.375H4.6875V3.125H12.5V9.375Z" fill="black"/>
</g>
<defs>
<clipPath id="clip0_38_26">
<rect width="25" height="25" fill="white"/>
</clipPath>
</defs>
</svg>
