<svg width="25" height="25" viewBox="0 0 25 25" fill="none" xmlns="http://www.w3.org/2000/svg">
<g clip-path="url(#clip0_38_22)">
<path d="M25 12.5C25 19.4043 19.4043 25 12.5 25C5.5957 25 0 19.4043 0 12.5C0 5.5957 5.5957 0 12.5 0C19.4043 0 25 5.5957 25 12.5ZM15.625 17.1875C15.625 15.874 14.8193 14.751 13.6719 14.292V4.29688C13.6719 3.64746 13.1494 3.125 12.5 3.125C11.8506 3.125 11.3281 3.64746 11.3281 4.29688V14.292C10.1807 14.7559 9.375 15.8789 9.375 17.1875C9.375 18.9111 10.7764 20.3125 12.5 20.3125C14.2236 20.3125 15.625 18.9111 15.625 17.1875ZM7.03125 8.59375C7.89551 8.59375 8.59375 7.89551 8.59375 7.03125C8.59375 6.16699 7.89551 5.46875 7.03125 5.46875C6.16699 5.46875 5.46875 6.16699 5.46875 7.03125C5.46875 7.89551 6.16699 8.59375 7.03125 8.59375ZM6.25 12.5C6.25 11.6357 5.55176 10.9375 4.6875 10.9375C3.82324 10.9375 3.125 11.6357 3.125 12.5C3.125 13.3643 3.82324 14.0625 4.6875 14.0625C5.55176 14.0625 6.25 13.3643 6.25 12.5ZM20.3125 14.0625C21.1768 14.0625 21.875 13.3643 21.875 12.5C21.875 11.6357 21.1768 10.9375 20.3125 10.9375C19.4482 10.9375 18.75 11.6357 18.75 12.5C18.75 13.3643 19.4482 14.0625 20.3125 14.0625ZM19.5312 7.03125C19.5312 6.16699 18.833 5.46875 17.9688 5.46875C17.1045 5.46875 16.4062 6.16699 16.4062 7.03125C16.4062 7.89551 17.1045 8.59375 17.9688 8.59375C18.833 8.59375 19.5312 7.89551 19.5312 7.03125Z" fill="black"/>
</g>
<defs>
<clipPath id="clip0_38_22">
<rect width="25" height="25" fill="white"/>
</clipPath>
</defs>
</svg>
