<svg width="21" height="25" viewBox="0 0 21 25" fill="none" xmlns="http://www.w3.org/2000/svg">
<g clip-path="url(#clip0_11_2)">
<path d="M11.7961 24.375C14.6016 21.2402 21 13.6426 21 9.375C21 4.19922 16.2969 0 10.5 0C4.70312 0 0 4.19922 0 9.375C0 13.6426 6.39844 21.2402 9.20391 24.375C9.87656 25.1221 11.1234 25.1221 11.7961 24.375ZM10.5 12.5C8.56953 12.5 7 11.0986 7 9.375C7 7.65137 8.56953 6.25 10.5 6.25C12.4305 6.25 14 7.65137 14 9.375C14 11.0986 12.4305 12.5 10.5 12.5Z" fill="black"/>
</g>
<defs>
<clipPath id="clip0_11_2">
<rect width="21" height="25" fill="white"/>
</clipPath>
</defs>
</svg>
