<svg width="25" height="25" viewBox="0 0 25 25" fill="none" xmlns="http://www.w3.org/2000/svg">
<path d="M20.0059 9.35219L19.6856 10.0528C19.5684 10.3125 19.3184 10.4202 19.0957 10.3174C18.6347 10.1018 18.2128 9.79313 17.8417 9.40608C17.662 9.21991 17.6151 8.89165 17.7323 8.63689L18.0526 7.93629C17.7831 7.54434 17.5721 7.0887 17.4315 6.59387H16.7869C16.5525 6.59387 16.3494 6.3832 16.3103 6.08924C16.2322 5.50133 16.2283 4.88401 16.3103 4.2716C16.3494 3.97764 16.5525 3.76207 16.7869 3.76207H17.4315C17.5721 3.26724 17.7831 2.8116 18.0526 2.41966L17.7323 1.71905C17.6151 1.46429 17.6581 1.13603 17.8417 0.949861C18.2128 0.562815 18.6386 0.254158 19.0957 0.0385879C19.3184 -0.0642978 19.5684 0.0434872 19.6856 0.303151L20.0059 1.00375C20.4161 0.910666 20.8341 0.910666 21.2443 1.00375L21.5646 0.303151C21.6818 0.0434872 21.9319 -0.0642978 22.1545 0.0385879C22.6155 0.254158 23.0374 0.562815 23.4086 0.949861C23.5883 1.13603 23.6351 1.46429 23.5179 1.71905L23.1976 2.41966C23.4671 2.8116 23.6781 3.26724 23.8187 3.76207H24.4633C24.6977 3.76207 24.9009 3.97274 24.9399 4.2667C25.0181 4.85462 25.022 5.47193 24.9399 6.08434C24.9009 6.3783 24.6977 6.59387 24.4633 6.59387H23.8187C23.6781 7.0887 23.4671 7.54434 23.1976 7.93629L23.5179 8.63689C23.6351 8.89165 23.5922 9.21991 23.4086 9.40608C23.0374 9.79313 22.6116 10.1018 22.1545 10.3174C21.9319 10.4202 21.6818 10.3125 21.5646 10.0528L21.2443 9.35219C20.838 9.44528 20.4161 9.44528 20.0059 9.35219ZM19.5957 6.47139C21.0998 7.92159 22.8148 5.77079 21.6584 3.88455C20.1544 2.42945 18.4394 4.58515 19.5957 6.47139ZM15.0915 14.0114L16.408 14.8345C16.8025 15.1187 16.9744 15.7213 16.8182 16.2602C16.4705 17.4459 15.7868 18.5335 15.154 19.484C14.8649 19.92 14.3648 20.0278 13.9703 19.7436L12.8335 18.9206C12.2084 19.5918 11.4818 20.1258 10.6888 20.4736V22.1198C10.6888 22.6881 10.3645 23.1781 9.91915 23.276C8.95814 23.4818 7.95024 23.4916 6.95407 23.276C6.50481 23.1781 6.17275 22.693 6.17275 22.1198V20.4736C5.37972 20.1209 4.65309 19.5918 4.02804 18.9206L2.89123 19.7387C2.50057 20.0229 1.99663 19.9151 1.70754 19.4791C1.07467 18.5286 0.40665 17.441 0.0589654 16.2602C-0.0972975 15.7262 0.0745917 15.1236 0.469156 14.8345L1.77004 14.0114C1.61769 12.9875 1.61769 11.9341 1.77004 10.9053L0.469156 10.0773C0.0745917 9.79313 -0.101204 9.19051 0.0589654 8.65649C0.40665 7.47085 1.07467 6.3832 1.70754 5.43274C1.99663 4.9967 2.49667 4.88891 2.89123 5.17307L4.02804 5.99616C4.65309 5.32495 5.37972 4.79093 6.17275 4.44307V2.792C6.17275 2.22858 6.49309 1.73865 6.93844 1.64066C7.89946 1.43489 8.91126 1.42509 9.90744 1.63577C10.3567 1.73375 10.6888 2.21878 10.6888 2.792V4.43817C11.4818 4.79093 12.2084 5.32005 12.8335 5.99126L13.9703 5.16817C14.3609 4.88401 14.8649 4.9918 15.154 5.42784C15.7868 6.3783 16.4509 7.46595 16.7986 8.65159C16.9549 9.18561 16.8025 9.78823 16.408 10.0773L15.0915 10.9004C15.2438 11.9292 15.2438 12.9826 15.0915 14.0114ZM10.4973 15.0452C12.81 11.2727 9.37614 6.96622 6.36808 9.86662C4.05539 13.6391 7.48927 17.9456 10.4973 15.0452ZM20.0059 23.9962L19.6856 24.6968C19.5684 24.9565 19.3184 25.0643 19.0957 24.9614C18.6347 24.7458 18.2128 24.4372 17.8417 24.0501C17.662 23.864 17.6151 23.5357 17.7323 23.2809L18.0526 22.5803C17.7831 22.1884 17.5721 21.7328 17.4315 21.2379H16.7869C16.5525 21.2379 16.3494 21.0273 16.3103 20.7333C16.2322 20.1454 16.2283 19.5281 16.3103 18.9157C16.3494 18.6217 16.5525 18.4061 16.7869 18.4061H17.4315C17.5721 17.9113 17.7831 17.4557 18.0526 17.0637L17.7323 16.3631C17.6151 16.1083 17.6581 15.7801 17.8417 15.5939C18.2128 15.2069 18.6386 14.8982 19.0957 14.6826C19.3184 14.5798 19.5684 14.6875 19.6856 14.9472L20.0059 15.6478C20.4161 15.5547 20.8341 15.5547 21.2443 15.6478L21.5646 14.9472C21.6818 14.6875 21.9319 14.5798 22.1545 14.6826C22.6155 14.8982 23.0374 15.2069 23.4086 15.5939C23.5883 15.7801 23.6351 16.1083 23.5179 16.3631L23.1976 17.0637C23.4671 17.4557 23.6781 17.9113 23.8187 18.4061H24.4633C24.6977 18.4061 24.9009 18.6168 24.9399 18.9108C25.0181 19.4987 25.022 20.116 24.9399 20.7284C24.9009 21.0224 24.6977 21.2379 24.4633 21.2379H23.8187C23.6781 21.7328 23.4671 22.1884 23.1976 22.5803L23.5179 23.2809C23.6351 23.5357 23.5922 23.864 23.4086 24.0501C23.0374 24.4372 22.6116 24.7458 22.1545 24.9614C21.9319 25.0643 21.6818 24.9565 21.5646 24.6968L21.2443 23.9962C20.838 24.0893 20.4161 24.0893 20.0059 23.9962ZM19.5957 21.1105C21.0998 22.5607 22.8148 20.4099 21.6584 18.5237C20.1544 17.0735 18.4394 19.2243 19.5957 21.1105Z" fill="black"/>
</svg>
