<svg width="50" height="50" viewBox="0 0 50 50" fill="none" xmlns="http://www.w3.org/2000/svg">
<g clip-path="url(#clip0_17_2)">
<rect width="50" height="50" fill="white"/>
<path d="M25 0.000499725C11.1934 0.000499725 0 11.1929 0 25C0 38.8069 11.1934 49.9995 25 49.9995C38.8076 49.9995 50 38.8069 50 25C50 11.1929 38.8077 0.000499725 25 0.000499725ZM25 48.7494C11.883 48.7494 1.25109 38.1166 1.25109 25C1.25109 11.8835 11.883 1.25016 25 1.25016C38.117 1.25016 48.7498 11.8835 48.7498 25C48.7498 38.1165 38.117 48.7494 25 48.7494Z" fill="url(#paint0_linear_17_2)"/>
<path d="M48.929 25C48.929 38.2144 38.2146 48.9284 25 48.9284C11.7854 48.9284 1.07214 38.2144 1.07214 25C1.07214 11.7848 11.7854 1.0716 25 1.0716C38.2146 1.0716 48.929 11.7848 48.929 25Z" fill="#333333"/>
<path d="M48.7498 25C48.7498 38.1166 38.117 48.7494 25.0001 48.7494C11.883 48.7494 1.2511 38.1166 1.2511 25C1.2511 11.8836 11.883 1.2502 25.0001 1.2502C38.117 1.2502 48.7498 11.8836 48.7498 25Z" fill="url(#paint1_radial_17_2)"/>
<path d="M40.9225 25C40.9225 33.7934 33.7938 40.9218 25.0002 40.9218C16.2063 40.9218 9.07764 33.7935 9.07764 25C9.07764 16.2062 16.2063 9.07767 25.0002 9.07767C33.7937 9.07762 40.9225 16.2062 40.9225 25Z" fill="url(#paint2_linear_17_2)"/>
<path d="M25.6378 8.64732L27.2918 4.26361V8.64732H28.548V2.3691H26.6602L24.943 6.86423H24.9593L23.2423 2.3691H21.3544V8.64732H22.6106V4.26361L24.2646 8.64732H25.6378ZM42.8774 11.4625L40.7312 14.5919L44.1023 12.9339L45.0167 14.0304L39.711 16.6945L38.6389 15.3965L40.6956 12.2956L40.6834 12.2803L37.2625 13.7446L36.1781 12.4553L39.7557 7.71812L40.6702 8.81522L38.4301 11.8318L41.8969 10.2856L42.8774 11.4625Z" fill="black"/>
<path d="M13.8809 10.2632C13.3753 9.77234 12.5951 9.62437 11.8617 10.079C12.0021 9.71587 11.9451 9.34619 11.8709 9.14115C11.5545 8.56594 11.4437 8.49319 11.1853 8.27498C10.3421 7.56847 9.45498 8.17175 8.82128 8.92699L5.75751 12.5783L10.5739 16.6191L13.8046 12.7696C14.543 11.8897 14.657 11.0175 13.8809 10.2632ZM7.65034 12.024L9.49065 9.83089C9.70422 9.57707 10.1864 9.58728 10.4956 9.84771C10.8363 10.1335 10.8374 10.5383 10.6085 10.8115L8.78868 12.9792L7.65034 12.024ZM12.7274 12.3887L10.8089 14.6749L9.60764 13.6653L11.5404 11.3613C11.7591 11.1009 12.2463 11.0251 12.5749 11.3007C12.9451 11.6121 12.9817 12.0856 12.7274 12.3887Z" fill="#333333"/>
<path d="M25.6511 8.40476L27.3051 4.02114V8.40476H28.5613V2.12653H26.6733L24.9563 6.62152H24.9726L23.2555 2.12653H21.3675V8.40476H22.6238V4.02114L24.2779 8.40476H25.6511Z" fill="url(#paint3_radial_17_2)"/>
<path d="M42.8898 11.0413L40.7444 14.1708L44.1155 12.5123L45.029 13.6093L39.7241 16.2734L38.652 14.9749L40.7088 11.8744L40.6967 11.8587L37.2747 13.3235L36.1915 12.0336L39.769 7.29695L40.6834 8.39361L38.4436 11.4101L41.9091 9.86448L42.8898 11.0413Z" fill="url(#paint4_radial_17_2)"/>
<path d="M13.6561 10.1396C13.1515 9.64879 12.3703 9.50072 11.6379 9.95499C11.7772 9.59177 11.7203 9.22204 11.6461 9.01804C11.3297 8.44184 11.2199 8.37008 10.9594 8.15143C10.1162 7.44448 9.23018 8.0481 8.59746 8.80403L5.5325 12.4547L10.3491 16.4956L13.5797 12.6455C14.3173 11.7656 14.4322 10.8939 13.6561 10.1396ZM7.42573 11.9004L9.26584 9.70778C9.47852 9.45352 9.96061 9.46368 10.2709 9.72351C10.6116 10.0099 10.6127 10.4152 10.3827 10.6873L8.56402 12.8555L7.42573 11.9004ZM12.5036 12.265L10.5851 14.5512L9.38175 13.5416L11.3156 11.2371C11.5343 10.9773 12.0204 10.9015 12.349 11.1772C12.7213 11.4889 12.7579 11.9614 12.5036 12.265Z" fill="url(#paint5_radial_17_2)"/>
<path d="M9.6076 25.0002C9.6076 16.499 16.4993 9.60726 25.0001 9.60726C33.5018 9.60726 40.3925 16.4989 40.3925 25.0002C40.3925 33.5012 33.5018 40.3926 25.0001 40.3926C16.4992 40.3926 9.6076 33.5011 9.6076 25.0002Z" fill="url(#paint6_radial_17_2)"/>
<path d="M10.0501 25.0002C10.0501 16.7436 16.7434 10.0497 25.0002 10.0497C33.2569 10.0497 39.9511 16.7435 39.9511 25.0002C39.9511 33.257 33.2568 39.9508 25.0001 39.9508C16.7434 39.9508 10.0501 33.257 10.0501 25.0002Z" fill="url(#paint7_radial_17_2)"/>
<path d="M10.0266 25.0002H25V10.0269C16.73 10.0269 10.0266 16.7303 10.0266 25.0002Z" fill="url(#paint8_radial_17_2)"/>
<path d="M25.0001 25.0002V39.9737C33.27 39.9737 39.9735 33.2691 39.9735 25.0002H25.0001Z" fill="url(#paint9_radial_17_2)"/>
<path d="M40.0974 24.7341H25.2655V9.90221H24.7345V24.7341H9.90256V25.2652H24.7345V40.0976H25.2655V25.2652H40.0974V24.7341Z" fill="url(#paint10_radial_17_2)"/>
<path d="M25.2655 10.3223C33.1643 10.4628 39.538 16.836 39.6794 24.7341H39.9437C39.8025 16.6896 33.3106 10.1968 25.2654 10.0563L25.2655 10.3223Z" fill="url(#paint11_linear_17_2)"/>
<path d="M10.2952 24.7322C10.4356 16.8233 16.8185 10.4409 24.7275 10.3V10.0344C16.6712 10.1753 10.1711 16.6768 10.0297 24.7321L10.2952 24.7322Z" fill="#C2D7E8"/>
<path d="M24.7345 39.6779C16.8358 39.5376 10.4621 33.1639 10.3217 25.2652H10.0562C10.1976 33.3102 16.6894 39.8033 24.7345 39.9436L24.7345 39.6779Z" fill="url(#paint12_linear_17_2)"/>
<path d="M39.6794 25.2652C39.5381 33.1639 33.1642 39.5376 25.2656 39.6779V39.9436C33.3107 39.8033 39.8035 33.3103 39.9439 25.2652H39.6794Z" fill="#12404F"/>
<path d="M24.4508 10.0345V24.4428H10.0429V24.7271H24.7345V10.0345H24.4508Z" fill="url(#paint13_linear_17_2)"/>
<path d="M24.4264 39.8043V25.5693H10.162V25.2886H24.7071V39.8043H24.4264Z" fill="url(#paint14_linear_17_2)"/>
<path d="M25.5697 39.8043V25.5693H39.8045V25.2886H25.2899V39.8043H25.5697Z" fill="url(#paint15_linear_17_2)"/>
<path d="M25.5697 10.1617V24.3965H39.8045V24.6768H25.2899V10.1617H25.5697Z" fill="url(#paint16_linear_17_2)"/>
</g>
<defs>
<linearGradient id="paint0_linear_17_2" x1="-3.6596" y1="-2.69492" x2="49.3851" y2="48.5638" gradientUnits="userSpaceOnUse">
<stop stop-color="#DFF4FF"/>
<stop offset="0.098" stop-color="#D6EAF5"/>
<stop offset="0.268" stop-color="#BFD0D9"/>
<stop offset="0.488" stop-color="#98A5AC"/>
<stop offset="0.747" stop-color="#646B6E"/>
<stop offset="1" stop-color="#2B2B2B"/>
</linearGradient>
<radialGradient id="paint1_radial_17_2" cx="0" cy="0" r="1" gradientUnits="userSpaceOnUse" gradientTransform="translate(-0.311566 1.65406) scale(35.5182 35.5182)">
<stop stop-color="white"/>
<stop offset="0.306" stop-color="#A8A8A8"/>
<stop offset="0.646" stop-color="#4F4F4F"/>
<stop offset="0.885" stop-color="#161616"/>
<stop offset="1"/>
</radialGradient>
<linearGradient id="paint2_linear_17_2" x1="43.2534" y1="42.6385" x2="9.46946" y2="9.99208" gradientUnits="userSpaceOnUse">
<stop stop-color="#DFF4FF"/>
<stop offset="0.086" stop-color="#D6EAF5"/>
<stop offset="0.233" stop-color="#BED0D9"/>
<stop offset="0.424" stop-color="#96A4AC"/>
<stop offset="0.652" stop-color="#5F686D"/>
<stop offset="0.907" stop-color="#1A1D1E"/>
<stop offset="1"/>
</linearGradient>
<radialGradient id="paint3_radial_17_2" cx="0" cy="0" r="1" gradientUnits="userSpaceOnUse" gradientTransform="translate(-6.69052 -1.96297) scale(85.3449 85.3449)">
<stop stop-color="white"/>
<stop offset="0.31" stop-color="#FDFDFD"/>
<stop offset="0.451" stop-color="#F6F6F6"/>
<stop offset="0.557" stop-color="#E9E9E9"/>
<stop offset="0.646" stop-color="#D7D7D7"/>
<stop offset="0.724" stop-color="#BFBFBF"/>
<stop offset="0.794" stop-color="#A2A2A2"/>
<stop offset="0.859" stop-color="#808080"/>
<stop offset="0.92" stop-color="#575757"/>
<stop offset="0.975" stop-color="#2B2B2B"/>
<stop offset="1" stop-color="#141414"/>
</radialGradient>
<radialGradient id="paint4_radial_17_2" cx="0" cy="0" r="1" gradientUnits="userSpaceOnUse" gradientTransform="translate(-6.69431 -1.96297) scale(85.3522 85.3522)">
<stop stop-color="white"/>
<stop offset="0.31" stop-color="#FDFDFD"/>
<stop offset="0.451" stop-color="#F6F6F6"/>
<stop offset="0.557" stop-color="#E9E9E9"/>
<stop offset="0.646" stop-color="#D7D7D7"/>
<stop offset="0.724" stop-color="#BFBFBF"/>
<stop offset="0.794" stop-color="#A2A2A2"/>
<stop offset="0.859" stop-color="#808080"/>
<stop offset="0.92" stop-color="#575757"/>
<stop offset="0.975" stop-color="#2B2B2B"/>
<stop offset="1" stop-color="#141414"/>
</radialGradient>
<radialGradient id="paint5_radial_17_2" cx="0" cy="0" r="1" gradientUnits="userSpaceOnUse" gradientTransform="translate(-6.699 -1.98803) scale(85.4175 85.4175)">
<stop stop-color="white"/>
<stop offset="0.31" stop-color="#FDFDFD"/>
<stop offset="0.451" stop-color="#F6F6F6"/>
<stop offset="0.557" stop-color="#E9E9E9"/>
<stop offset="0.646" stop-color="#D7D7D7"/>
<stop offset="0.724" stop-color="#BFBFBF"/>
<stop offset="0.794" stop-color="#A2A2A2"/>
<stop offset="0.859" stop-color="#808080"/>
<stop offset="0.92" stop-color="#575757"/>
<stop offset="0.975" stop-color="#2B2B2B"/>
<stop offset="1" stop-color="#141414"/>
</radialGradient>
<radialGradient id="paint6_radial_17_2" cx="0" cy="0" r="1" gradientUnits="userSpaceOnUse" gradientTransform="translate(8.59475 9.86892) scale(23.0201 23.0201)">
<stop stop-color="#E6E6E6"/>
<stop offset="0.104" stop-color="#D6D6D6"/>
<stop offset="0.307" stop-color="#ADADAD"/>
<stop offset="0.588" stop-color="#6C6C6C"/>
<stop offset="0.933" stop-color="#121212"/>
<stop offset="1"/>
</radialGradient>
<radialGradient id="paint7_radial_17_2" cx="0" cy="0" r="1" gradientUnits="userSpaceOnUse" gradientTransform="translate(14.891 12.9651) scale(33.4778 33.4779)">
<stop stop-color="white"/>
<stop offset="0.344" stop-color="#FDFDFD"/>
<stop offset="0.481" stop-color="#F6F6F6"/>
<stop offset="0.582" stop-color="#EAEAEA"/>
<stop offset="0.665" stop-color="#D8D8D8"/>
<stop offset="0.737" stop-color="#C2C2C2"/>
<stop offset="0.802" stop-color="#A6A6A6"/>
<stop offset="0.86" stop-color="#848484"/>
<stop offset="0.913" stop-color="#5F5F5F"/>
<stop offset="0.949" stop-color="#404040"/>
<stop offset="0.957" stop-color="#404040"/>
<stop offset="1"/>
</radialGradient>
<radialGradient id="paint8_radial_17_2" cx="0" cy="0" r="1" gradientUnits="userSpaceOnUse" gradientTransform="translate(5.06146 0.274879) scale(59.2897)">
<stop offset="0.169" stop-color="white"/>
<stop offset="0.196" stop-color="#E0EFF7"/>
<stop offset="0.241" stop-color="#B2D9EC"/>
<stop offset="0.287" stop-color="#8BC5E2"/>
<stop offset="0.335" stop-color="#6BB5DA"/>
<stop offset="0.384" stop-color="#52A9D4"/>
<stop offset="0.436" stop-color="#41A0CF"/>
<stop offset="0.491" stop-color="#369BCD"/>
<stop offset="0.556" stop-color="#3399CC"/>
<stop offset="0.606" stop-color="#3396C8"/>
<stop offset="0.655" stop-color="#328EBC"/>
<stop offset="0.705" stop-color="#3180A8"/>
<stop offset="0.754" stop-color="#2F6D8C"/>
<stop offset="0.803" stop-color="#2D5468"/>
<stop offset="0.851" stop-color="#2A373D"/>
<stop offset="0.871" stop-color="#292929"/>
</radialGradient>
<radialGradient id="paint9_radial_17_2" cx="0" cy="0" r="1" gradientUnits="userSpaceOnUse" gradientTransform="translate(5.06148 0.274431) scale(59.2885 59.2885)">
<stop offset="0.169" stop-color="white"/>
<stop offset="0.196" stop-color="#E0EFF7"/>
<stop offset="0.241" stop-color="#B2D9EC"/>
<stop offset="0.287" stop-color="#8BC5E2"/>
<stop offset="0.335" stop-color="#6BB5DA"/>
<stop offset="0.384" stop-color="#52A9D4"/>
<stop offset="0.436" stop-color="#41A0CF"/>
<stop offset="0.491" stop-color="#369BCD"/>
<stop offset="0.556" stop-color="#3399CC"/>
<stop offset="0.606" stop-color="#3396C8"/>
<stop offset="0.655" stop-color="#328EBC"/>
<stop offset="0.705" stop-color="#3180A8"/>
<stop offset="0.754" stop-color="#2F6D8C"/>
<stop offset="0.803" stop-color="#2D5468"/>
<stop offset="0.851" stop-color="#2A373D"/>
<stop offset="0.871" stop-color="#292929"/>
</radialGradient>
<radialGradient id="paint10_radial_17_2" cx="0" cy="0" r="1" gradientUnits="userSpaceOnUse" gradientTransform="translate(8.90914 10.1589) scale(22.5789 22.5789)">
<stop stop-color="#E6E6E6"/>
<stop offset="0.104" stop-color="#D6D6D6"/>
<stop offset="0.307" stop-color="#ADADAD"/>
<stop offset="0.588" stop-color="#6C6C6C"/>
<stop offset="0.933" stop-color="#121212"/>
<stop offset="1"/>
</radialGradient>
<linearGradient id="paint11_linear_17_2" x1="22.0394" y1="4.52128" x2="44.0583" y2="25.7988" gradientUnits="userSpaceOnUse">
<stop stop-color="#F0F4FF"/>
<stop offset="0.109" stop-color="#EBEFF9"/>
<stop offset="0.247" stop-color="#DCE0EA"/>
<stop offset="0.403" stop-color="#C4C7CF"/>
<stop offset="0.57" stop-color="#A2A4AB"/>
<stop offset="0.747" stop-color="#76777C"/>
<stop offset="0.929" stop-color="#414243"/>
<stop offset="1" stop-color="#2B2B2B"/>
</linearGradient>
<linearGradient id="paint12_linear_17_2" x1="4.16733" y1="22.4856" x2="26.1865" y2="43.7635" gradientUnits="userSpaceOnUse">
<stop stop-color="#F0F4FF"/>
<stop offset="0.109" stop-color="#EBEFF9"/>
<stop offset="0.247" stop-color="#DCE0EA"/>
<stop offset="0.403" stop-color="#C4C7CF"/>
<stop offset="0.57" stop-color="#A2A4AB"/>
<stop offset="0.747" stop-color="#76777C"/>
<stop offset="0.929" stop-color="#414243"/>
<stop offset="1" stop-color="#2B2B2B"/>
</linearGradient>
<linearGradient id="paint13_linear_17_2" x1="14.8197" y1="14.8982" x2="26.2375" y2="25.9316" gradientUnits="userSpaceOnUse">
<stop stop-color="#C2D7E8"/>
<stop offset="0.134" stop-color="#BACFE1"/>
<stop offset="0.343" stop-color="#A4BACD"/>
<stop offset="0.6" stop-color="#8098AC"/>
<stop offset="0.894" stop-color="#4E697F"/>
<stop offset="1" stop-color="#3A566D"/>
</linearGradient>
<linearGradient id="paint14_linear_17_2" x1="9.10145" y1="17.6019" x2="30.899" y2="38.6655" gradientUnits="userSpaceOnUse">
<stop stop-color="#F0F4FF"/>
<stop offset="0.097" stop-color="#E8EBF6"/>
<stop offset="0.257" stop-color="#D1D4DD"/>
<stop offset="0.459" stop-color="#ABAEB5"/>
<stop offset="0.695" stop-color="#78797D"/>
<stop offset="0.958" stop-color="#363637"/>
<stop offset="1" stop-color="#2B2B2B"/>
</linearGradient>
<linearGradient id="paint15_linear_17_2" x1="25.1675" y1="25.4154" x2="32.8136" y2="32.8039" gradientUnits="userSpaceOnUse">
<stop stop-color="#D9DEF0"/>
<stop offset="0.123" stop-color="#D4DAEC"/>
<stop offset="0.263" stop-color="#C7CFE2"/>
<stop offset="0.411" stop-color="#B0BCD1"/>
<stop offset="0.566" stop-color="#90A1B8"/>
<stop offset="0.725" stop-color="#677F99"/>
<stop offset="0.885" stop-color="#355674"/>
<stop offset="0.972" stop-color="#173D5D"/>
</linearGradient>
<linearGradient id="paint16_linear_17_2" x1="17.346" y1="9.60765" x2="39.12" y2="30.6485" gradientUnits="userSpaceOnUse">
<stop stop-color="#F0F4FF"/>
<stop offset="0.109" stop-color="#EBEFF9"/>
<stop offset="0.247" stop-color="#DCE0EA"/>
<stop offset="0.403" stop-color="#C4C7CF"/>
<stop offset="0.57" stop-color="#A2A4AB"/>
<stop offset="0.747" stop-color="#76777C"/>
<stop offset="0.929" stop-color="#414243"/>
<stop offset="1" stop-color="#2B2B2B"/>
</linearGradient>
<clipPath id="clip0_17_2">
<rect width="50" height="50" fill="white"/>
</clipPath>
</defs>
</svg>
