<svg width="50" height="50" viewBox="0 0 50 50" fill="none" xmlns="http://www.w3.org/2000/svg">
<g clip-path="url(#clip0_17_51)">
<rect width="50" height="50" fill="white"/>
<path fill-rule="evenodd" clip-rule="evenodd" d="M0 0H50V50H0V0Z" fill="white"/>
<path fill-rule="evenodd" clip-rule="evenodd" d="M15.5424 18.671C24.6166 18.671 37.3446 19.4959 43.3548 21.9708C43.9441 22.2066 44.3566 22.3832 44.3566 22.7957C44.3566 23.3847 43.1193 23.7383 41.9997 24.0919C37.5215 25.5063 29.5664 27.1558 17.8407 27.9812L7.05736 17.139C5.9967 17.139 5.11294 17.1982 4.46471 17.2568L15.6605 28.4526L12.5962 32.8719C30.6862 29.9845 38.8769 27.1561 42.5302 25.5063C43.2962 25.0939 45.535 24.1507 45.535 22.7957C45.535 21.9705 44.769 21.4992 43.8266 21.0868C40.0553 19.4959 33.8091 18.435 27.622 17.9048C21.1993 17.2565 12.6551 17.0799 7.94112 17.1388L18.0173 27.215C19.9618 27.097 21.8473 26.92 23.6151 26.7434L15.5424 18.671Z" fill="black"/>
</g>
<defs>
<clipPath id="clip0_17_51">
<rect width="50" height="50" fill="white"/>
</clipPath>
</defs>
</svg>
