<svg width="50" height="50" viewBox="0 0 50 50" fill="none" xmlns="http://www.w3.org/2000/svg">
<g clip-path="url(#clip0_17_29)">
<rect width="50" height="50" fill="white"/>
<path fill-rule="evenodd" clip-rule="evenodd" d="M0 0H50V50H0V0Z" fill="white"/>
<path fill-rule="evenodd" clip-rule="evenodd" d="M24.8926 26.505H10.348L3.13867 39.1632H17.7252L24.8926 26.505ZM32.2825 13.5194L25.0104 0.735386L17.7172 13.5194L25.0104 26.3245L32.2825 13.5194ZM32.275 39.1632H46.8613L39.6519 26.505H25.1074L32.275 39.1632Z" fill="#CC2229"/>
<path fill-rule="evenodd" clip-rule="evenodd" d="M31.6281 49.0817H32.7173V43.263H31.6281V49.0817ZM43.8438 49.0817H44.9332V43.263H43.8438V49.0817ZM11.1561 49.0817H12.2453V43.263H11.1561V49.0817ZM16.4086 43.263H13.0398V44.2497H14.1627V49.0817H15.2856V44.2497H16.4086V43.263ZM41.6628 45.4748H39.2102V43.263H38.121V49.0817H39.2102V46.4616H41.6628V49.0817H42.7514V43.263H41.6628V45.4748ZM7.64022 45.866L6.61924 43.263H5.36014V49.0817H6.44908V45.4748L7.64022 48.3671L8.79713 45.4409V49.0817H9.88581V43.263H8.66094L7.64022 45.866ZM25.6365 43.2635H24.5575V47.4149C24.5575 47.8667 24.0514 48.2327 23.5995 48.2327C23.1479 48.2327 22.6418 47.8667 22.6418 47.4149V43.2635H21.5428L21.5589 47.364C21.5589 48.4138 22.5495 49.2649 23.5993 49.2649C24.6493 49.2649 25.6399 48.4138 25.6399 47.364L25.6365 43.2635ZM29.8364 45.9342C29.9895 45.832 30.5679 45.4917 30.5679 44.7605C30.5679 43.7392 29.7513 43.2801 29.2066 43.2632H26.684V49.082H28.9171C29.8022 49.082 30.7547 48.6566 30.7547 47.5337C30.7549 46.5638 30.2961 46.1892 29.8364 45.9342ZM28.9687 48.095H27.7737V44.2497H28.9176C29.2242 44.2497 29.4624 44.505 29.4624 44.8113C29.4624 45.1177 29.3433 45.4748 28.935 45.4748H28.4593V46.4618H28.969C29.2756 46.4618 29.7005 46.7511 29.6839 47.3464C29.6688 47.8566 29.258 48.095 28.9687 48.095ZM16.8446 47.1933C16.836 47.2527 16.8446 47.321 16.8485 47.4315C16.8485 48.4348 17.6617 49.1972 18.665 49.1972C19.6684 49.1972 20.4816 48.5202 20.4816 47.5166C20.4816 46.9887 20.2748 46.5809 19.9156 46.2489C19.6222 45.9781 18.7864 45.5719 18.4609 45.3726C18.1546 45.1854 18.0101 45.0411 18.0028 44.7688C18.0028 44.3701 18.2664 44.0894 18.665 44.0894C18.8565 44.0894 19.0401 44.1655 19.1755 44.3009C19.3109 44.4362 19.3869 44.6199 19.3869 44.8113C19.3942 44.9135 19.3968 45.0155 19.3968 45.0834H20.3615V44.8113C20.3615 43.8746 19.7711 43.132 18.665 43.132C17.7284 43.132 16.9686 43.7735 16.9686 44.8113C16.972 45.2707 17.1847 45.713 17.7123 46.0619C18.2791 46.4364 18.9882 46.7166 19.2264 46.955C19.3701 47.0987 19.4591 47.2971 19.4591 47.5163C19.4591 47.9547 19.1034 48.2678 18.6648 48.2678C18.2261 48.2678 17.8736 47.882 17.8197 47.5163C17.8083 47.4229 17.78 47.2613 17.7885 47.1931H16.8446V47.1933ZM35.2368 45.3726C34.9302 45.1854 34.7859 45.0411 34.7782 44.7688C34.7782 44.3701 35.0422 44.0894 35.4409 44.0894C35.6323 44.0896 35.8158 44.1657 35.951 44.301C36.0863 44.4364 36.1623 44.6199 36.1623 44.8113C36.1698 44.9135 36.1724 45.0155 36.1724 45.0834H37.1371V44.8113C37.1371 43.8746 36.5465 43.132 35.4409 43.132C34.5037 43.132 33.7442 43.7735 33.7442 44.8113C33.7478 45.2707 33.9605 45.713 34.4879 46.0619C35.0549 46.4364 35.7641 46.7166 36.0022 46.955C36.1457 47.0987 36.2347 47.2971 36.2347 47.5163C36.2347 47.9547 35.879 48.2678 35.4407 48.2678C35.002 48.2678 34.6492 47.882 34.595 47.5163C34.5839 47.4229 34.5556 47.2613 34.5642 47.1931H33.6197C33.6111 47.2525 33.6197 47.3207 33.6238 47.4312C33.6238 48.4345 34.4371 49.1969 35.4407 49.1969C36.4437 49.1969 37.2569 48.5199 37.2569 47.5163C37.2569 46.9884 37.0502 46.5807 36.6909 46.2486C36.3978 45.9781 35.562 45.5719 35.2368 45.3726Z" fill="black"/>
</g>
<defs>
<clipPath id="clip0_17_29">
<rect width="50" height="50" fill="white"/>
</clipPath>
</defs>
</svg>
