<svg width="50" height="50" viewBox="0 0 50 50" fill="none" xmlns="http://www.w3.org/2000/svg">
<g clip-path="url(#clip0_17_55)">
<rect width="50" height="50" fill="white"/>
<path d="M24.9406 44.6C24.9331 41.6178 26.9155 39.2119 29.3916 39.2068C31.8071 39.2115 33.7911 41.6174 33.8398 44.6C33.7917 47.5489 31.8076 49.9548 29.3916 49.9965C26.9155 49.9548 24.9332 47.5489 24.9406 44.6ZM29.3918 48.0085C30.7285 47.9835 31.8351 46.4606 31.8489 44.6C31.8351 42.7038 30.7285 41.1809 29.3918 41.1916C27.9973 41.1805 26.888 42.7033 26.9321 44.6C26.888 46.4604 27.9973 47.9832 29.3918 48.0085ZM38.8745 41.4758V49.7125H37.0023V41.4758H34.3083V39.633H41.4513V41.4758H38.8745ZM43.6747 47.4379L42.9737 49.7127H40.7505L44.2624 39.633H46.6031L50 49.7127H47.7766L47.0741 47.4379H43.6747ZM45.4338 45.7362H46.6031L45.4338 42.0436L44.2624 45.7362H45.4338ZM4.44905 41.4758V49.7125H2.57563V41.4758H0V39.633H7.02591V41.4758H4.44905ZM7.4944 44.6C7.4981 41.6178 9.47948 39.2119 11.9419 39.2068C14.3725 39.2115 16.3569 41.6174 16.3927 44.6C16.3569 47.5489 14.3725 49.9548 11.9419 49.9965C9.47948 49.9548 7.49793 47.5489 7.4944 44.6ZM11.9419 48.0085C13.2944 47.9835 14.4002 46.4606 14.4014 44.6C14.4 42.7038 13.2944 41.1809 11.9419 41.1916C10.5611 41.1805 9.45337 42.7033 9.48565 44.6C9.45337 46.4604 10.5611 47.9832 11.9419 48.0085ZM20.6082 49.7125H21.5439V45.878L24.8235 39.633H22.7166L20.6082 43.89L18.6169 39.633H16.3929L19.6724 45.878V49.7125H20.6082Z" fill="#AB002F"/>
<path d="M1.5076 17.4455C1.5076 27.0631 11.8221 34.8881 24.4999 34.8881C37.1774 34.8881 47.4921 27.0631 47.4921 17.4455C47.4919 7.82713 37.1774 0.00320053 24.4997 0.00320053C11.8219 0.00320053 1.5076 7.82713 1.5076 17.4455ZM2.21315 17.4455C2.21315 8.30061 12.2107 0.860123 24.4999 0.860123C36.7887 0.860123 46.7866 8.30061 46.7866 17.4455C46.7866 26.5924 36.7887 34.0326 24.4999 34.0326C12.2107 34.0324 2.21315 26.5926 2.21315 17.4455Z" fill="black"/>
<path d="M22.3273 3.17415C16.946 3.57257 13.0374 5.30181 12.3712 7.58002C12.3033 7.80958 12.2684 8.05152 12.2678 8.29537C12.2678 8.67967 12.3574 9.06397 12.5352 9.43137C13.2821 10.9741 15.6003 12.2464 18.8993 12.9288L19.2486 12.9981L19.3071 12.5751C19.8487 8.57017 21.0373 5.42093 22.5696 3.93398L23.4378 3.09053L22.3273 3.17415ZM13.1443 9.00002C13.0293 8.76286 12.9727 8.5289 12.9727 8.29836C12.9727 8.15294 12.9933 8.01094 13.036 7.86637C13.5445 6.12601 16.9991 4.60592 21.4122 4.11555C20.1533 5.84201 19.1853 8.62406 18.6803 12.0041C15.8125 11.3608 13.7505 10.253 13.1443 9.00002ZM21.3434 12.831L21.2744 13.2964L21.6637 13.3323C22.5869 13.4159 23.5414 13.4611 24.499 13.4611C25.4575 13.4611 26.4124 13.4159 27.3358 13.3323L27.7244 13.2964L27.6553 12.831C27.1245 9.2173 25.9438 7.05864 24.4995 7.05864C23.0542 7.05864 21.874 9.2173 21.3434 12.831ZM24.4997 7.91406C25.4871 7.91406 26.3987 9.70682 26.879 12.5053C26.0981 12.5671 25.3028 12.6056 24.499 12.6056C23.6962 12.6056 22.9005 12.5671 22.1205 12.5053C22.5994 9.70682 23.5124 7.91406 24.4997 7.91406ZM26.429 3.93441C27.9608 5.42135 29.1507 8.57103 29.6922 12.5755L29.7501 12.9985L30.0988 12.9292C33.3992 12.2468 35.7187 10.9741 36.4629 9.43159C36.7523 8.83878 36.8074 8.19849 36.6283 7.58066C35.9623 5.30266 32.0535 3.57342 26.6726 3.17458L25.5635 3.09096L26.429 3.93441ZM27.5886 4.11555C32.0004 4.60592 35.4548 6.12879 35.9619 7.86637C36.006 8.01094 36.0267 8.15294 36.0267 8.29836C36.0267 8.5289 35.9688 8.76286 35.8565 9.00002C35.2481 10.2528 33.1854 11.3608 30.3191 12.0041C29.8141 8.62428 28.8475 5.84222 27.5886 4.11555ZM8.96618 9.259C6.54772 11.7151 5.26961 14.633 5.26961 17.6986C5.26961 24.9103 12.5227 31.006 22.1399 31.8747L23.2142 31.9725L22.3962 31.1254C20.2893 28.94 18.9808 23.7548 18.9808 17.5926L19.0029 16.1366L18.708 16.0639C13.6493 14.9647 10.0504 12.3858 9.53804 9.49788L9.41545 8.80456L8.96618 9.259ZM5.97587 17.6986C5.97587 15.0699 7.03349 12.547 9.01928 10.3559C9.94444 13.2739 13.4013 15.7048 18.2876 16.8359C18.2814 17.17 18.276 17.5926 18.276 17.5926C18.276 23.3064 19.3943 28.2409 21.2388 30.9032C12.4758 29.7695 5.97587 24.2202 5.97587 17.6986ZM21.056 16.9279L21.0539 17.0831C21.0539 22.8111 22.5352 27.1325 24.4997 27.1325C26.4634 27.1325 27.9449 22.8111 27.9449 17.0831L27.9401 16.4651L27.5613 16.5045C26.5622 16.6105 25.5335 16.6631 24.5 16.6631C23.4666 16.6631 22.4365 16.6105 21.44 16.5045L21.0597 16.4627L21.056 16.9279ZM27.2351 17.387C27.182 22.7165 25.7972 26.2777 24.4997 26.2777C23.2009 26.2777 21.8159 22.7165 21.7642 17.387C22.6614 17.4672 23.5777 17.5173 24.4997 17.5173C25.4231 17.5173 26.3368 17.4672 27.2351 17.387ZM39.4601 9.49788C38.9482 12.3858 35.3486 14.9645 30.2916 16.0639L29.9952 16.1306L30.0187 17.5923C30.0187 23.7546 28.7095 28.94 26.6033 31.1252L25.7854 31.9722L26.8582 31.8745C36.4763 31.0058 43.7296 24.9101 43.7296 17.6984C43.7296 14.6328 42.45 11.7149 40.0316 9.25879L39.5837 8.80434L39.4601 9.49788ZM39.9788 10.3559C41.966 12.547 43.0244 15.0699 43.0244 17.6986C43.0244 24.2202 36.5248 29.7695 27.7609 30.9032C29.6054 28.2409 30.7237 23.3064 30.7237 17.5926C30.7237 17.5926 30.7168 17.1698 30.7121 16.8359C35.5968 15.7048 39.0535 13.2737 39.9788 10.3559Z" fill="black"/>
<path d="M39.7102 7.29602C39.7426 7.40466 39.7723 7.51543 39.7956 7.62685C39.9286 8.26757 39.901 8.89673 39.7287 9.50986C42.0232 11.8039 43.3757 14.6332 43.3757 17.6988C43.3757 25.3506 34.9242 31.555 24.4997 31.555C14.0744 31.555 5.62361 25.3506 5.62361 17.6988C5.62361 14.6358 6.97757 11.8041 9.26921 9.50986C9.09829 8.89673 9.07078 8.26757 9.20377 7.62685C9.2313 7.50528 9.26796 7.38702 9.31331 7.27356C6.18241 9.97799 4.28412 13.5222 4.28412 17.4039C4.28412 25.8795 13.3343 32.7496 24.4995 32.7496C35.6633 32.7496 44.7149 25.8795 44.7149 17.4039C44.7152 13.5304 42.8245 9.99424 39.7102 7.29602Z" fill="url(#paint0_linear_17_55)"/>
<path d="M27.3081 12.9063C26.4172 12.9874 25.4781 13.0316 24.499 13.0316C23.5205 13.0316 22.5821 12.9874 21.6912 12.9063H21.6884L21.1061 13.4191C22.1803 13.5327 23.3147 13.5971 24.4995 13.5971C25.6845 13.5971 26.8186 13.5327 27.8936 13.4191L27.3081 12.9063ZM37.6341 7.52976C36.9245 4.68612 31.0747 2.59781 24.4997 2.59781C17.9257 2.59781 12.0761 4.68654 11.3665 7.52976C10.7505 9.99659 14.1128 12.2797 19.4176 13.1852L18.9567 12.5049C14.6655 11.6195 12.1149 9.73163 12.7033 7.72437C13.4165 5.28726 18.5963 3.52252 24.4991 3.52252C30.4018 3.52252 35.5829 5.28769 36.2953 7.72437C36.883 9.73184 34.3337 11.6198 30.0414 12.5049L29.5821 13.1852C34.8849 12.2797 38.2495 9.99659 37.6341 7.52976Z" fill="url(#paint1_linear_17_55)"/>
<path d="M21.6983 12.9063C22.1909 9.58727 23.2597 7.51308 24.4991 7.51308C25.74 7.51308 26.8079 9.58727 27.3013 12.9063H27.3111L27.8874 13.4134C27.4009 9.03018 26.0685 6.22909 24.5 6.22909C22.9305 6.22909 21.5986 9.03018 21.1128 13.4134L21.6889 12.9063H21.6983Z" fill="url(#paint2_linear_17_55)"/>
<path d="M28.062 15.8969L27.5907 16.9302C27.5907 17.0055 27.5935 17.0829 27.5935 17.1614C27.5935 22.6631 26.2059 26.8346 24.4993 26.8346C22.7912 26.8346 21.4064 22.6627 21.4064 17.1614C21.4064 17.0746 21.4078 16.9884 21.4092 16.9052L20.9372 15.8969C20.9233 16.3163 20.9164 16.7359 20.9165 17.1556C20.9165 23.3932 22.5206 28.1181 24.5 28.1181C26.4795 28.1181 28.085 23.3932 28.085 17.1556C28.0842 16.7359 28.0766 16.3162 28.062 15.8969Z" fill="url(#paint3_linear_17_55)"/>
<path d="M19.4252 13.1878C20.1032 7.09542 22.1186 2.59738 24.4999 2.59738C21.947 2.59738 19.7711 6.58238 18.9635 12.5169L19.4183 13.1878H19.4252Z" fill="url(#paint4_linear_17_55)"/>
<path d="M29.5751 13.1878H29.5798L30.0346 12.5169C29.2285 6.58238 27.0511 2.59738 24.4997 2.59738C26.8809 2.59781 28.8977 7.09542 29.5751 13.1878Z" fill="url(#paint5_linear_17_55)"/>
<path d="M30.3515 16.4816L29.7728 15.6437H29.768C29.8005 16.3094 29.819 16.9861 29.819 17.6734C29.819 25.9997 27.4371 32.7492 24.4998 32.7492C27.7932 32.7492 30.3702 26.4892 30.3702 17.6734C30.3702 17.2701 30.3634 16.8744 30.3515 16.4816Z" fill="url(#paint6_linear_17_55)"/>
<path d="M19.1819 17.6736C19.1819 16.9863 19.2004 16.3096 19.2322 15.6439H19.2283L18.6482 16.4792C18.6359 16.8772 18.6295 17.2754 18.6289 17.6736C18.6289 26.4894 21.2079 32.7494 24.5 32.7494C21.5639 32.7494 19.1819 25.9997 19.1819 17.6736Z" fill="url(#paint7_linear_17_55)"/>
<path d="M39.7287 9.50964C40.6059 10.3869 41.3458 11.3441 41.9246 12.3608C41.7242 10.7439 41.1937 9.21331 40.3812 7.90829C40.1619 7.69706 39.9381 7.49297 39.7098 7.29623C39.7425 7.40487 39.7721 7.51565 39.795 7.62707C39.9286 8.26757 39.9011 8.89652 39.7287 9.50964ZM9.2694 9.50964C9.09848 8.89652 9.07096 8.26735 9.20396 7.62664C9.23149 7.50506 9.26815 7.3868 9.3135 7.27335C9.07821 7.47919 8.84645 7.69088 8.61835 7.90829C7.80705 9.21414 7.27664 10.7443 7.07495 12.3608C7.65368 11.3441 8.39222 10.3867 9.2694 9.50964Z" fill="#2D2F34"/>
<path d="M1.86037 17.4456C1.86037 8.05007 11.9957 0.43166 24.4998 0.43166C37.0023 0.43166 47.1377 8.05007 47.1377 17.4456C47.1377 26.8431 37.0023 34.4588 24.4998 34.4588C11.9957 34.4585 1.86037 26.8433 1.86037 17.4456ZM24.4997 32.7494C35.6637 32.7494 44.715 25.8793 44.715 17.4037C44.715 8.92731 35.6637 2.05483 24.4997 2.05483C13.3343 2.05483 4.28359 8.92774 4.28359 17.4037C4.28359 25.8793 13.3344 32.7494 24.4997 32.7494Z" fill="url(#paint8_linear_17_55)"/>
<path d="M19.1819 17.6736C19.1819 9.43479 21.5639 2.59781 24.4997 2.59781C27.4369 2.59781 29.819 9.43479 29.819 17.6736C29.819 25.9999 27.4369 32.7494 24.4997 32.7494C21.5625 32.7494 19.1819 25.9997 19.1819 17.6736ZM24.4997 28.1181C26.4793 28.1181 28.0848 23.3932 28.0848 17.1582C28.0848 10.6876 26.4791 6.2293 24.4997 6.2293C22.5202 6.2293 20.9162 10.6876 20.9162 17.1582C20.9162 23.3932 22.5202 28.1181 24.4997 28.1181Z" fill="url(#paint9_linear_17_55)"/>
<path d="M9.20396 7.62664C9.78745 4.82577 16.8441 0.749237 24.4997 0.749237C32.1546 0.749237 38.9688 3.66196 39.7956 7.62664C40.7209 12.0706 33.9202 16.0924 24.4997 16.0924C15.0775 16.0924 8.27721 12.0708 9.20396 7.62664ZM24.4997 2.59781C17.9257 2.59781 12.0761 4.68654 11.3665 7.52976C10.5713 10.7152 16.41 13.5971 24.4997 13.5971C32.591 13.5971 38.4286 10.7147 37.6341 7.52976C36.9245 4.68612 31.0751 2.59781 24.4997 2.59781Z" fill="url(#paint10_linear_17_55)"/>
<path d="M20.9299 15.8885L20.934 15.892L21.4197 16.9302C22.4084 17.0327 23.4366 17.0913 24.4997 17.0913C25.5677 17.0913 26.5983 17.0329 27.5935 16.9277L28.0662 15.8915L28.0691 15.8881C26.9322 16.0192 25.7402 16.0919 24.5 16.0919C23.308 16.0928 22.1166 16.0249 20.9299 15.8885ZM39.8755 8.58749C39.7541 11.765 35.7256 14.5802 29.7707 15.6411L29.7728 15.6437L30.3537 16.4852C36.1803 15.2153 40.0134 12.096 39.8755 8.58749ZM9.12405 8.58749C8.98629 12.0994 12.819 15.2151 18.6446 16.4852L19.2269 15.6437L19.2283 15.6411C13.2724 14.5804 9.24664 11.7652 9.12405 8.58749Z" fill="url(#paint11_linear_17_55)"/>
</g>
<defs>
<linearGradient id="paint0_linear_17_55" x1="24.4995" y1="30.854" x2="24.4995" y2="11.4669" gradientUnits="userSpaceOnUse">
<stop stop-color="#F0F3F5"/>
<stop offset="0.056" stop-color="#E2E5E8"/>
<stop offset="0.138" stop-color="#D4D8DD"/>
<stop offset="0.242" stop-color="#CCD0D6"/>
<stop offset="0.44" stop-color="#CACED4"/>
<stop offset="0.568" stop-color="#B3B7BD"/>
<stop offset="0.835" stop-color="#797C83"/>
<stop offset="1" stop-color="#52545C"/>
</linearGradient>
<linearGradient id="paint1_linear_17_55" x1="24.5002" y1="16.0821" x2="24.5002" y2="5.57661" gradientUnits="userSpaceOnUse">
<stop stop-color="#F0F3F5"/>
<stop offset="0.056" stop-color="#E2E5E8"/>
<stop offset="0.138" stop-color="#D4D8DD"/>
<stop offset="0.242" stop-color="#CCD0D6"/>
<stop offset="0.44" stop-color="#CACED4"/>
<stop offset="0.568" stop-color="#B3B7BD"/>
<stop offset="0.835" stop-color="#797C83"/>
<stop offset="1" stop-color="#52545C"/>
</linearGradient>
<linearGradient id="paint2_linear_17_55" x1="27.3766" y1="14.1512" x2="21.1427" y2="9.83676" gradientUnits="userSpaceOnUse">
<stop stop-color="#F0F3F5"/>
<stop offset="0.056" stop-color="#E2E5E8"/>
<stop offset="0.138" stop-color="#D4D8DD"/>
<stop offset="0.242" stop-color="#CCD0D6"/>
<stop offset="0.44" stop-color="#CACED4"/>
<stop offset="0.568" stop-color="#B3B7BD"/>
<stop offset="0.835" stop-color="#797C83"/>
<stop offset="1" stop-color="#52545C"/>
</linearGradient>
<linearGradient id="paint3_linear_17_55" x1="27.9269" y1="23.3079" x2="19.3522" y2="19.2246" gradientUnits="userSpaceOnUse">
<stop stop-color="#F0F3F5"/>
<stop offset="0.056" stop-color="#E2E5E8"/>
<stop offset="0.138" stop-color="#D4D8DD"/>
<stop offset="0.242" stop-color="#CCD0D6"/>
<stop offset="0.44" stop-color="#CACED4"/>
<stop offset="0.568" stop-color="#B3B7BD"/>
<stop offset="0.835" stop-color="#797C83"/>
<stop offset="1" stop-color="#52545C"/>
</linearGradient>
<linearGradient id="paint4_linear_17_55" x1="21.7318" y1="0.430162" x2="21.7318" y2="17.093" gradientUnits="userSpaceOnUse">
<stop stop-color="#F0F3F5"/>
<stop offset="0.056" stop-color="#E2E5E8"/>
<stop offset="0.138" stop-color="#D4D8DD"/>
<stop offset="0.242" stop-color="#CCD0D6"/>
<stop offset="0.44" stop-color="#CACED4"/>
<stop offset="0.568" stop-color="#B3B7BD"/>
<stop offset="0.835" stop-color="#797C83"/>
<stop offset="1" stop-color="#52545C"/>
</linearGradient>
<linearGradient id="paint5_linear_17_55" x1="27.2672" y1="0.430162" x2="27.2672" y2="17.093" gradientUnits="userSpaceOnUse">
<stop stop-color="#F0F3F5"/>
<stop offset="0.056" stop-color="#E2E5E8"/>
<stop offset="0.138" stop-color="#D4D8DD"/>
<stop offset="0.242" stop-color="#CCD0D6"/>
<stop offset="0.44" stop-color="#CACED4"/>
<stop offset="0.568" stop-color="#B3B7BD"/>
<stop offset="0.835" stop-color="#797C83"/>
<stop offset="1" stop-color="#52545C"/>
</linearGradient>
<linearGradient id="paint6_linear_17_55" x1="27.435" y1="0.290091" x2="27.435" y2="28.0987" gradientUnits="userSpaceOnUse">
<stop stop-color="#F0F3F5"/>
<stop offset="0.056" stop-color="#E2E5E8"/>
<stop offset="0.138" stop-color="#D4D8DD"/>
<stop offset="0.242" stop-color="#CCD0D6"/>
<stop offset="0.44" stop-color="#CACED4"/>
<stop offset="0.568" stop-color="#B3B7BD"/>
<stop offset="0.835" stop-color="#797C83"/>
<stop offset="1" stop-color="#52545C"/>
</linearGradient>
<linearGradient id="paint7_linear_17_55" x1="21.5644" y1="0.290091" x2="21.5644" y2="28.0987" gradientUnits="userSpaceOnUse">
<stop stop-color="#F0F3F5"/>
<stop offset="0.056" stop-color="#E2E5E8"/>
<stop offset="0.138" stop-color="#D4D8DD"/>
<stop offset="0.242" stop-color="#CCD0D6"/>
<stop offset="0.44" stop-color="#CACED4"/>
<stop offset="0.568" stop-color="#B3B7BD"/>
<stop offset="0.835" stop-color="#797C83"/>
<stop offset="1" stop-color="#52545C"/>
</linearGradient>
<linearGradient id="paint8_linear_17_55" x1="24.499" y1="0.43166" x2="24.499" y2="34.4588" gradientUnits="userSpaceOnUse">
<stop stop-color="#F0F3F5"/>
<stop offset="0.253" stop-color="#EDF0F3"/>
<stop offset="0.406" stop-color="#E5E8EA"/>
<stop offset="0.531" stop-color="#D7DADC"/>
<stop offset="0.642" stop-color="#C3C5C9"/>
<stop offset="0.744" stop-color="#A9ABAF"/>
<stop offset="0.839" stop-color="#888B90"/>
<stop offset="0.926" stop-color="#63656B"/>
<stop offset="1" stop-color="#3D3F46"/>
</linearGradient>
<linearGradient id="paint9_linear_17_55" x1="24.5004" y1="0.429948" x2="24.5004" y2="34.4592" gradientUnits="userSpaceOnUse">
<stop stop-color="#F0F3F5"/>
<stop offset="0.253" stop-color="#EDF0F3"/>
<stop offset="0.406" stop-color="#E5E8EA"/>
<stop offset="0.531" stop-color="#D7DADC"/>
<stop offset="0.642" stop-color="#C3C5C9"/>
<stop offset="0.744" stop-color="#A9ABAF"/>
<stop offset="0.839" stop-color="#888B90"/>
<stop offset="0.926" stop-color="#63656B"/>
<stop offset="1" stop-color="#3D3F46"/>
</linearGradient>
<linearGradient id="paint10_linear_17_55" x1="24.4997" y1="0.433585" x2="24.4997" y2="34.462" gradientUnits="userSpaceOnUse">
<stop stop-color="#F0F3F5"/>
<stop offset="0.253" stop-color="#EDF0F3"/>
<stop offset="0.406" stop-color="#E5E8EA"/>
<stop offset="0.531" stop-color="#D7DADC"/>
<stop offset="0.642" stop-color="#C3C5C9"/>
<stop offset="0.744" stop-color="#A9ABAF"/>
<stop offset="0.839" stop-color="#888B90"/>
<stop offset="0.926" stop-color="#63656B"/>
<stop offset="1" stop-color="#3D3F46"/>
</linearGradient>
<linearGradient id="paint11_linear_17_55" x1="24.4998" y1="7.48891" x2="24.4998" y2="17.1869" gradientUnits="userSpaceOnUse">
<stop stop-color="#CACED4"/>
<stop offset="1" stop-color="#52545C"/>
</linearGradient>
<clipPath id="clip0_17_55">
<rect width="50" height="50" fill="white"/>
</clipPath>
</defs>
</svg>
